<svg xmlns="http://www.w3.org/2000/svg" width="24" height="24" viewBox="0 0 24 24">
  <g id="ic_learn" data-name="ic learn" transform="translate(-86 -212)">
    <circle id="Ellipse_5" data-name="Ellipse 5" cx="12" cy="12" r="12" transform="translate(86 212)" fill="#fd6620"/>
    <g id="Group_414" data-name="Group 414" transform="translate(89 215)">
      <path id="Path_362" data-name="Path 362" d="M3,9h.667M9,3v.667M14.333,9H15M4.733,4.733,5.2,5.2m8.067-.467L12.8,5.2" fill="none" stroke="#fff" stroke-linecap="round" stroke-linejoin="round" stroke-width="1.2"/>
      <path id="Path_363" data-name="Path 363" d="M8.333,13a3.333,3.333,0,1,1,4,0,2.333,2.333,0,0,0-.667,2A1.333,1.333,0,1,1,9,15a2.333,2.333,0,0,0-.667-2" transform="translate(-1.333 -1.333)" fill="none" stroke="#fff" stroke-linecap="round" stroke-linejoin="round" stroke-width="1.2"/>
      <line id="Line_68" data-name="Line 68" x2="3.067" transform="translate(7.467 12.333)" fill="none" stroke="#fff" stroke-linecap="round" stroke-linejoin="round" stroke-width="1.2"/>
    </g>
  </g>
</svg>
