<svg xmlns="http://www.w3.org/2000/svg" width="16" height="16" viewBox="0 0 16 16">
  <g id="ic_error" data-name="ic error" transform="translate(0 -75)">
    <circle id="Ellipse_46" data-name="Ellipse 46" cx="8" cy="8" r="8" transform="translate(0 75)" fill="#c70000"/>
    <path id="Path_360" data-name="Path 360" d="M1.414-7.518,1.344-9.38H3.416l-.07,1.862L3.052-3.234H1.708Zm-.28,6.4a1.289,1.289,0,0,1,.357-.931,1.183,1.183,0,0,1,.889-.371,1.183,1.183,0,0,1,.889.371,1.289,1.289,0,0,1,.357.931A1.271,1.271,0,0,1,3.269-.2,1.183,1.183,0,0,1,2.38.168,1.183,1.183,0,0,1,1.491-.2,1.271,1.271,0,0,1,1.134-1.12Z" transform="translate(5.366 88)" fill="#fff"/>
  </g>
</svg>
