<svg id="Group" xmlns="http://www.w3.org/2000/svg" width="20" height="20" viewBox="0 0 20 20">
  <path id="Path" d="M0,0H20V20H0Z" fill="none"/>
  <path id="Path-2" data-name="Path" d="M0,0,15,15" transform="translate(2.5 2.5)" fill="none" stroke="#929292" stroke-linecap="round" stroke-linejoin="round" stroke-miterlimit="10" stroke-width="1.25"/>
  <path id="Path-3" data-name="Path" d="M.489,0A1.667,1.667,0,1,0,2.845,2.358" transform="translate(8.331 8.823)" fill="none" stroke="#929292" stroke-linecap="round" stroke-linejoin="round" stroke-miterlimit="10" stroke-width="1.25"/>
  <path id="Shape" d="M8.333,11.667A7.854,7.854,0,0,1,3.75,10.209,13.268,13.268,0,0,1,0,5.834,13.143,13.143,0,0,1,3.86,1.382L12.8,10.291A7.85,7.85,0,0,1,8.333,11.667ZM14.581,8.74h0L6.136.3A7.876,7.876,0,0,1,8.3,0h.029a7.854,7.854,0,0,1,4.583,1.458,13.275,13.275,0,0,1,3.751,4.376,15.942,15.942,0,0,1-2.085,2.905Z" transform="translate(1.667 4.167)" fill="none" stroke="#929292" stroke-linecap="round" stroke-linejoin="round" stroke-miterlimit="10" stroke-width="1.25"/>
</svg>
