<svg id="Group" xmlns="http://www.w3.org/2000/svg" width="115.742" height="24" viewBox="0 0 115.742 24">
  <path id="Fill_428" data-name="Fill 428" d="M.008,14.348a.07.07,0,0,0,0,.073.073.073,0,0,0,.065.036H14.1a5.363,5.363,0,0,0,4.791-7.777L15.911.76A1.375,1.375,0,0,0,14.676,0H10.807a.113.113,0,0,0-.1.056.11.11,0,0,0,0,.113L14.534,7.85a1.511,1.511,0,0,1-1.352,2.186H2.935a1.389,1.389,0,0,0-1.249.789Z" transform="translate(1.443 9.543)" fill="#80c342"/>
  <path id="Fill_430" data-name="Fill 430" d="M17.738,3.633,19.415.109a.071.071,0,0,0,0-.073A.071.071,0,0,0,19.346,0H5.442A5.438,5.438,0,0,0,.586,7.883L3.513,13.7a1.375,1.375,0,0,0,1.235.76h3.87a.117.117,0,0,0,.1-.169L4.889,6.607A1.512,1.512,0,0,1,6.242,4.422H16.489a1.39,1.39,0,0,0,1.249-.789" fill="#80c342"/>
  <path id="Fill_432" data-name="Fill 432" d="M8.138,14.689H.181A.182.182,0,0,1,0,14.507V.181A.181.181,0,0,1,.181,0H8.138c2.4,0,4.019,1.494,4.019,3.718V10.97C12.157,13.194,10.542,14.689,8.138,14.689ZM3.056,2.459a.3.3,0,0,0-.3.3v9.176a.3.3,0,0,0,.3.3H7.344A1.83,1.83,0,0,0,9.4,10.348V4.341A1.83,1.83,0,0,0,7.344,2.459Z" transform="translate(57.073 4.64)" fill="#fff"/>
  <path id="Fill_434" data-name="Fill 434" d="M4.228,9.238H7.081a.226.226,0,0,1,.212.142l2.186,5.24a.11.11,0,0,0,.1.069h2.888a.109.109,0,0,0,.093-.049.112.112,0,0,0,.009-.107l-.844-1.93L10.189,9.083a.226.226,0,0,1,.11-.293,3.492,3.492,0,0,0,1.987-3.27v-1.8C12.287,1.494,10.671,0,8.266,0H.181A.181.181,0,0,0,0,.182V14.508a.181.181,0,0,0,.181.181h2.4a.181.181,0,0,0,.181-.181V2.756a.3.3,0,0,1,.3-.3H7.473A1.83,1.83,0,0,1,9.527,4.342V4.9A1.83,1.83,0,0,1,7.473,6.78H5.41a.252.252,0,0,0-.226.143L4.14,9.1a.1.1,0,0,0,.088.139" transform="translate(87.113 4.64)" fill="#fff"/>
  <path id="Fill_436" data-name="Fill 436" d="M14.659,14.689H12.067a.18.18,0,0,1-.167-.113l-1.394-3.352a.3.3,0,0,0-.274-.183H4.577a.3.3,0,0,0-.276.185L2.94,14.575a.181.181,0,0,1-.168.113H.182a.179.179,0,0,1-.151-.081.181.181,0,0,1-.017-.17L5.956.112A.181.181,0,0,1,6.124,0H8.695a.18.18,0,0,1,.167.112l5.964,14.326a.18.18,0,0,1-.017.17A.178.178,0,0,1,14.659,14.689ZM7.4,3.821h0a.3.3,0,0,0-.278.194l-1.6,4.291a.3.3,0,0,0,.279.4l3.217,0A.3.3,0,0,0,9.3,8.3L7.679,4.015A.3.3,0,0,0,7.4,3.822Z" transform="translate(100.901 4.64)" fill="#fff"/>
  <path id="Fill_438" data-name="Fill 438" d="M14.659,14.688H12.067a.18.18,0,0,1-.167-.112l-1.393-3.352a.3.3,0,0,0-.275-.184H4.577a.3.3,0,0,0-.276.185L2.94,14.576a.181.181,0,0,1-.168.113H.182a.182.182,0,0,1-.168-.25L5.957.112A.18.18,0,0,1,6.124,0h2.57a.18.18,0,0,1,.167.112l5.964,14.325a.18.18,0,0,1-.016.17A.178.178,0,0,1,14.659,14.688ZM7.4,3.822a.294.294,0,0,0-.278.194l-1.6,4.291a.3.3,0,0,0,.279.4l3.218,0a.3.3,0,0,0,.244-.128A.3.3,0,0,0,9.3,8.3L7.679,4.015A.294.294,0,0,0,7.4,3.822Z" transform="translate(70.558 4.64)" fill="#fff"/>
  <path id="Fill_440" data-name="Fill 440" d="M.075,14.914H8.261c3.064,0,4.684-1.392,4.684-4.027v-.825A3.6,3.6,0,0,0,9.294,6.118l-4.17-.3C3.6,5.716,2.952,5.274,2.952,4.345v-.55c0-.909.611-1.371,1.815-1.371H10.7a.775.775,0,0,0,.7-.44L12.292.108a.074.074,0,0,0,0-.073A.072.072,0,0,0,12.224,0H5.086C1.075,0,.232,2.122.232,3.9v.7c0,2.244,1.361,3.627,3.735,3.794l4.064.275c1.516.106,2.192.62,2.192,1.667v.529c0,1.064-.639,1.6-1.9,1.6L1.6,12.49a.776.776,0,0,0-.7.44L.008,14.806a.073.073,0,0,0,0,.072.072.072,0,0,0,.063.035" transform="translate(28.014 4.528)" fill="#fff"/>
  <path id="Fill_442" data-name="Fill 442" d="M.179,0A.181.181,0,0,0,0,.183V14.508a.177.177,0,0,0,.179.178H11.21a.177.177,0,0,0,.179-.178v-2.1a.182.182,0,0,0-.179-.183H3.055a.294.294,0,0,1-.3-.295V8.807a.3.3,0,0,1,.3-.3H7.507a.785.785,0,0,0,.705-.445l.908-1.9a.079.079,0,0,0,0-.072.077.077,0,0,0-.068-.039H3.055a.3.3,0,0,1-.3-.295v-3a.3.3,0,0,1,.3-.3h7.41a.788.788,0,0,0,.709-.445l.9-1.9a.079.079,0,0,0-.006-.079A.069.069,0,0,0,12.011,0Z" transform="translate(43.192 4.64)" fill="#fff"/>
</svg>
