<svg xmlns="http://www.w3.org/2000/svg" width="25.25" height="19.917" viewBox="0 0 25.25 19.917">
  <g id="Group_3" data-name="Group 3" transform="translate(0.625 0.625)">
    <g id="Group">
      <path id="Path" d="M.667,0V2.667" transform="translate(15.333)" fill="none" stroke="#929292" stroke-linecap="round" stroke-linejoin="round" stroke-miterlimit="10" stroke-width="1.25"/>
      <path id="Path-2" data-name="Path" d="M.667,0V2.667" transform="translate(15.333 8)" fill="none" stroke="#929292" stroke-linecap="round" stroke-linejoin="round" stroke-miterlimit="10" stroke-width="1.25"/>
      <path id="Path-3" data-name="Path" d="M.667,0V2.667" transform="translate(15.333 16)" fill="none" stroke="#929292" stroke-linecap="round" stroke-linejoin="round" stroke-miterlimit="10" stroke-width="1.25"/>
      <path id="Path-4" data-name="Path" d="M2.667,0H21.333A2.667,2.667,0,0,1,24,2.667v4A2.667,2.667,0,0,0,24,12v4a2.667,2.667,0,0,1-2.667,2.667H2.667A2.667,2.667,0,0,1,0,16V12A2.667,2.667,0,0,0,2.667,9.333,2.667,2.667,0,0,0,0,6.667v-4A2.667,2.667,0,0,1,2.667,0" fill="none" stroke="#929292" stroke-linecap="round" stroke-linejoin="round" stroke-miterlimit="10" stroke-width="1.25"/>
    </g>
  </g>
</svg>
