<svg id="Group_6" data-name="Group 6" xmlns="http://www.w3.org/2000/svg" width="24" height="20.572" viewBox="0 0 24 20.572">
  <g id="Card_Lock" data-name="Card Lock">
    <path id="Path" d="M9.211,17.143h-7.5A1.714,1.714,0,0,1,0,15.429V1.714A1.714,1.714,0,0,1,1.714,0H22.286A1.714,1.714,0,0,1,24,1.714V8H22.857V1.714a.571.571,0,0,0-.571-.571H1.714a.571.571,0,0,0-.571.571V15.429A.571.571,0,0,0,1.714,16h7.5Z"/>
    <path id="Shape" d="M1.715,10.286A1.715,1.715,0,0,1,0,8.572V1.715A1.715,1.715,0,0,1,1.715,0h9.142a1.715,1.715,0,0,1,1.715,1.715V8.572a1.715,1.715,0,0,1-1.715,1.715Z" transform="translate(11.429 10.286)"/>
    <path id="Shape-2" data-name="Shape" d="M.572,5.714A.571.571,0,0,1,0,5.143V2.858a2.857,2.857,0,1,1,5.714,0V5.143a.571.571,0,0,1-.572.572Z" transform="translate(14.857 5.714)"/>
    <path id="Path-2" data-name="Path" d="M1.143,2.286A1.143,1.143,0,1,1,2.286,1.143,1.143,1.143,0,0,1,1.143,2.286Z" transform="translate(16.571 14.286)"/>
    <rect id="Rectangle" width="6.286" height="1.143" transform="translate(3.429 3.429)"/>
  </g>
</svg>
