<svg id="Group_7" data-name="Group 7" xmlns="http://www.w3.org/2000/svg" width="21" height="21" viewBox="0 0 21 21">
  <g id="Page_Lock" data-name="Page Lock">
    <path id="Shape" d="M1.5,9A1.5,1.5,0,0,1,0,7.5v-6A1.5,1.5,0,0,1,1.5,0h8A1.5,1.5,0,0,1,11,1.5v6A1.5,1.5,0,0,1,9.5,9Z" transform="translate(5 12)"/>
    <path id="Shape-2" data-name="Shape" d="M.5,5A.5.5,0,0,1,0,4.5v-2a2.5,2.5,0,0,1,5,0v2a.5.5,0,0,1-.5.5Z" transform="translate(8 8)"/>
    <path id="Path" d="M1,2A1,1,0,1,1,2,1,1,1,0,0,1,1,2Z" transform="translate(9.5 15.5)"/>
    <path id="Path-2" data-name="Path" d="M19.5,15H18V14h1.5a.5.5,0,0,0,.5-.5V1.5a.5.5,0,0,0-.5-.5H1.5a.5.5,0,0,0-.5.5v12a.5.5,0,0,0,.5.5H3v1H1.5A1.5,1.5,0,0,1,0,13.5V1.5A1.5,1.5,0,0,1,1.5,0h18A1.5,1.5,0,0,1,21,1.5v12A1.5,1.5,0,0,1,19.5,15Z"/>
    <circle id="Oval" cx="0.5" cy="0.5" r="0.5" transform="translate(2 2)"/>
    <circle id="Oval-2" data-name="Oval" cx="0.5" cy="0.5" r="0.5" transform="translate(4 2)"/>
    <circle id="Oval-3" data-name="Oval" cx="0.5" cy="0.5" r="0.5" transform="translate(6 2)"/>
  </g>
</svg>
