<svg xmlns="http://www.w3.org/2000/svg" width="19.059" height="24" viewBox="0 0 19.059 24">
  <g id="Group_8" data-name="Group 8" transform="translate(0 0)">
    <g id="Profile_Security" data-name="Profile Security">
      <path id="Shape" d="M8.357,23.66A17.194,17.194,0,0,1,0,8.986V5.234a2.345,2.345,0,0,1,1.489-2.2L8.65.171a2.349,2.349,0,0,1,1.759,0l7.161,2.86a2.343,2.343,0,0,1,1.489,2.2V8.986a17.193,17.193,0,0,1-8.31,14.675,2.27,2.27,0,0,1-2.391,0Z"/>
      <path id="Shape-2" data-name="Shape" d="M0,4.1A4.1,4.1,0,1,1,4.1,8.2,4.1,4.1,0,0,1,0,4.1Z" transform="translate(5.427 4.379)"/>
      <path id="Path" d="M12.424,4.6a6.447,6.447,0,0,0-11.393,0L0,4.057a7.607,7.607,0,0,1,13.456,0Z" transform="translate(2.802 13.754)"/>
    </g>
  </g>
</svg>
