<svg id="Group_4" data-name="Group 4" xmlns="http://www.w3.org/2000/svg" width="24" height="24" viewBox="0 0 24 24">
  <g id="Group">
    <path id="Path" d="M0,0H24V24H0Z" fill="none"/>
    <path id="Path-2" data-name="Path" d="M6,2a2,2,0,0,1,4,0,7,7,0,0,1,4,6v3a4,4,0,0,0,2,3H0a4,4,0,0,0,2-3V8A7,7,0,0,1,6,2" transform="translate(4 3)" fill="none" stroke="#929292" stroke-linecap="round" stroke-linejoin="round" stroke-miterlimit="10" stroke-width="1.25"/>
    <path id="Path-3" data-name="Path" d="M0,0V1A3,3,0,0,0,6,1V0" transform="translate(9 17)" fill="none" stroke="#929292" stroke-linecap="round" stroke-linejoin="round" stroke-miterlimit="10" stroke-width="1.25"/>
  </g>
  <g id="Oval" transform="translate(13.2 3.6)" fill="#f75959" stroke="#00293a" stroke-miterlimit="10" stroke-width="1">
    <circle cx="4.2" cy="4.2" r="4.2" stroke="none"/>
    <circle cx="4.2" cy="4.2" r="3.7" fill="none"/>
  </g>
</svg>
