<svg id="Group_4" data-name="Group 4" xmlns="http://www.w3.org/2000/svg" width="22.665" height="25" viewBox="0 0 22.665 25">
  <g id="Scan_RUnning" data-name="Scan RUnning">
    <path id="Shape" d="M5.584,14.021a1.669,1.669,0,0,1-.822-.227A9.952,9.952,0,0,1,0,5.318V3.211A1.583,1.583,0,0,1,1,1.724L4.988.116a1.584,1.584,0,0,1,1.191,0L10.2,1.724a1.581,1.581,0,0,1,1,1.488V5.318A9.95,9.95,0,0,1,6.44,13.794a1.666,1.666,0,0,1-.842.227Z" transform="translate(5.727 5.491)"/>
    <path id="Path" d="M2.44,5.012a.607.607,0,0,1-.429-.179L0,2.821l.845-.833,1.6,1.583L6.012,0l.845.833-4.012,4A.6.6,0,0,1,2.44,5.012Z" transform="translate(7.87 9.917)"/>
    <path id="Path-2" data-name="Path" d="M.275,13.784A11.309,11.309,0,0,1,18.822,2.855l-.8.881a10.131,10.131,0,0,0-16.6,9.786Z" transform="translate(0 0.002)"/>
    <path id="Path-3" data-name="Path" d="M4.167,4.762H0V3.571H3.571V0h1.19V4.167A.6.6,0,0,1,4.167,4.762Z" transform="translate(14.287)"/>
    <path id="Path-4" data-name="Path" d="M7.286,13.786A11.238,11.238,0,0,1,0,11.143l.75-.929A10.131,10.131,0,0,0,17.179.262L18.369,0A11.274,11.274,0,0,1,7.286,13.786Z" transform="translate(4.013 11.214)"/>
    <path id="Path-5" data-name="Path" d="M1.19,4.762H0V.6A.6.6,0,0,1,.6,0H4.762V1.19H1.19Z" transform="translate(3.572 20.238)"/>
  </g>
</svg>
