<svg id="ic_excel_file" data-name="ic excel file" xmlns="http://www.w3.org/2000/svg" width="20" height="20" viewBox="0 0 20 20">
  <rect id="Rectangle_138" data-name="Rectangle 138" width="20" height="20" fill="none"/>
  <g id="excel" transform="translate(0 0.625)">
    <path id="Path_315" data-name="Path 315" d="M265.375,93.761h-8.75a.625.625,0,0,1-.625-.625v-12.5a.625.625,0,0,1,.625-.625h8.75a.625.625,0,0,1,.625.625v12.5A.625.625,0,0,1,265.375,93.761Z" transform="translate(-246 -77.51)" fill="#eceff1"/>
    <g id="Group_269" data-name="Group 269" transform="translate(10 5.001)">
      <path id="Path_316" data-name="Path 316" d="M259.125,145.261h-2.5a.625.625,0,0,1,0-1.25h2.5a.625.625,0,0,1,0,1.25Z" transform="translate(-256 -144.011)" fill="#388e3c"/>
      <path id="Path_317" data-name="Path 317" d="M259.125,209.261h-2.5a.625.625,0,0,1,0-1.25h2.5a.625.625,0,0,1,0,1.25Z" transform="translate(-256 -205.511)" fill="#388e3c"/>
      <path id="Path_318" data-name="Path 318" d="M259.125,273.261h-2.5a.625.625,0,0,1,0-1.25h2.5a.625.625,0,0,1,0,1.25Z" transform="translate(-256 -267.011)" fill="#388e3c"/>
      <path id="Path_319" data-name="Path 319" d="M259.125,337.261h-2.5a.625.625,0,0,1,0-1.25h2.5a.625.625,0,0,1,0,1.25Z" transform="translate(-256 -328.511)" fill="#388e3c"/>
      <path id="Path_320" data-name="Path 320" d="M385.875,145.261h-1.25a.625.625,0,0,1,0-1.25h1.25a.625.625,0,0,1,0,1.25Z" transform="translate(-379 -144.011)" fill="#388e3c"/>
      <path id="Path_321" data-name="Path 321" d="M385.875,209.261h-1.25a.625.625,0,0,1,0-1.25h1.25a.625.625,0,0,1,0,1.25Z" transform="translate(-379 -205.511)" fill="#388e3c"/>
      <path id="Path_322" data-name="Path 322" d="M385.875,273.261h-1.25a.625.625,0,0,1,0-1.25h1.25a.625.625,0,0,1,0,1.25Z" transform="translate(-379 -267.011)" fill="#388e3c"/>
      <path id="Path_323" data-name="Path 323" d="M385.875,337.261h-1.25a.625.625,0,0,1,0-1.25h1.25a.625.625,0,0,1,0,1.25Z" transform="translate(-379 -328.511)" fill="#388e3c"/>
    </g>
    <path id="Path_324" data-name="Path 324" d="M11.024,16.134A.614.614,0,0,0,10.51,16l-10,1.875A.623.623,0,0,0,0,18.49V32.24a.624.624,0,0,0,.51.614l10,1.875a.588.588,0,0,0,.115.011.625.625,0,0,0,.625-.625v-17.5A.623.623,0,0,0,11.024,16.134Z" transform="translate(0 -15.989)" fill="#2e7d32"/>
    <path id="Path_325" data-name="Path 325" d="M85.454,165.865l-1.976-2.259,2-2.57a.625.625,0,1,0-.986-.769l-1.851,2.38-1.56-1.783a.625.625,0,1,0-.94.823l1.719,1.965-1.743,2.24a.625.625,0,0,0,.987.767l1.594-2.05,1.818,2.076a.624.624,0,1,0,.94-.821Z" transform="translate(-76.859 -154.4)" fill="#fafafa"/>
  </g>
</svg>
